<?xml version="1.0" encoding="UTF-8" standalone="no"?>
<svg
   xmlns:dc="http://purl.org/dc/elements/1.1/"
   xmlns:cc="http://creativecommons.org/ns#"
   xmlns:rdf="http://www.w3.org/1999/02/22-rdf-syntax-ns#"
   xmlns:svg="http://www.w3.org/2000/svg"
   xmlns="http://www.w3.org/2000/svg"
   xmlns:sodipodi="http://sodipodi.sourceforge.net/DTD/sodipodi-0.dtd"
   xmlns:inkscape="http://www.inkscape.org/namespaces/inkscape"
   version="1.1"
   id="svg2"
   xml:space="preserve"
   width="1500.8429"
   height="1306.0372"
   viewBox="0 0 1500.8429 1306.0372"
   sodipodi:docname="banner-img.svg"
   inkscape:version="0.92.3 (2405546, 2018-03-11)"><metadata
     id="metadata8"><rdf:RDF><cc:Work
         rdf:about=""><dc:format>image/svg+xml</dc:format><dc:type
           rdf:resource="http://purl.org/dc/dcmitype/StillImage" /><dc:title></dc:title></cc:Work></rdf:RDF></metadata><defs
     id="defs6"><clipPath
       clipPathUnits="userSpaceOnUse"
       id="clipPath18"><path
         d="M 0,2000 H 2000 V 0 H 0 Z"
         id="path16"
         inkscape:connector-curvature="0" /></clipPath></defs><sodipodi:namedview
     pagecolor="#ffffff"
     bordercolor="#666666"
     borderopacity="1"
     objecttolerance="10"
     gridtolerance="10"
     guidetolerance="10"
     inkscape:pageopacity="0"
     inkscape:pageshadow="2"
     inkscape:window-width="1366"
     inkscape:window-height="704"
     id="namedview4"
     showgrid="false"
     inkscape:zoom="0.50063159"
     inkscape:cx="1021.0285"
     inkscape:cy="897.10817"
     inkscape:window-x="0"
     inkscape:window-y="27"
     inkscape:window-maximized="1"
     inkscape:current-layer="g14"
     fit-margin-top="0"
     fit-margin-left="0"
     fit-margin-right="0"
     fit-margin-bottom="0" /><g
     id="g10"
     inkscape:groupmode="layer"
     inkscape:label="65516_SEOLOMON_Logo_MJ(1)_02"
     transform="matrix(1.3333333,0,0,-1.3333333,-345.50254,2143.719)"><g
       id="g12"><g
         id="g14"
         clip-path="url(#clipPath18)"><g
           id="g52"
           transform="translate(963.9155,1400.6782)"
           style="fill:#d9ddc1;fill-opacity:1"><path
             inkscape:connector-curvature="0"
             d="m 0,0 c -1.149,-1.152 -1.853,-2.721 -1.854,-4.478 0.001,-1.756 0.705,-3.325 1.854,-4.479 1.153,-1.149 2.723,-1.853 4.478,-1.854 1.757,10e-4 3.326,0.705 4.478,1.854 1.15,1.154 1.854,2.723 1.856,4.479 C 10.81,-2.721 10.106,-1.152 8.956,0 7.804,1.15 6.235,1.854 4.478,1.856 2.723,1.854 1.153,1.15 0,0"
             style="fill:#d9ddc1;fill-opacity:1;fill-rule:nonzero;stroke:none"
             id="path54" /></g><g
           id="g56"
           transform="translate(937.7971,1283.8887)"
           style="fill:#d9ddc1;fill-opacity:1"><path
             inkscape:connector-curvature="0"
             d="M 0,0 C 1.757,0.001 3.326,0.705 4.479,1.855 5.628,3.008 6.333,4.577 6.334,6.334 6.333,8.089 5.628,9.659 4.479,10.811 3.326,11.96 1.757,12.666 0,12.666 -1.755,12.666 -3.324,11.96 -4.477,10.811 -5.627,9.659 -6.331,8.089 -6.332,6.334 -6.331,4.577 -5.627,3.008 -4.477,1.855 -3.324,0.705 -1.755,0.001 0,0"
             style="fill:#d9ddc1;fill-opacity:1;fill-rule:nonzero;stroke:none"
             id="path58" /></g><g
           id="g60"
           transform="translate(954.4948,1257.0121)"
           style="fill:#d9ddc1;fill-opacity:1"><path
             inkscape:connector-curvature="0"
             d="M 0,0 C 1.524,0.001 2.884,0.611 3.884,1.609 4.882,2.611 5.493,3.97 5.494,5.494 5.493,7.018 4.882,8.377 3.884,9.379 2.884,10.376 1.524,10.987 0,10.988 -1.524,10.987 -2.883,10.376 -3.884,9.379 -4.883,8.377 -5.493,7.018 -5.494,5.494 -5.493,3.97 -4.883,2.611 -3.884,1.609 -2.883,0.611 -1.524,0.001 0,0"
             style="fill:#d9ddc1;fill-opacity:1;fill-rule:nonzero;stroke:none"
             id="path62" /></g><g
           id="g64"
           transform="translate(998.7991,1294.6997)"
           style="fill:#d9ddc1;fill-opacity:1"><path
             inkscape:connector-curvature="0"
             d="m 0,0 c -1.149,-1.152 -1.853,-2.722 -1.854,-4.477 0.001,-1.757 0.705,-3.326 1.854,-4.479 1.154,-1.15 2.723,-1.854 4.478,-1.855 1.757,10e-4 3.326,0.705 4.479,1.855 1.15,1.153 1.854,2.722 1.855,4.479 C 10.811,-2.722 10.107,-1.152 8.957,0 7.804,1.149 6.235,1.855 4.478,1.855 2.723,1.855 1.154,1.149 0,0"
             style="fill:#d9ddc1;fill-opacity:1;fill-rule:nonzero;stroke:none"
             id="path66" /></g><g
           id="g68"
           transform="translate(982.6967,1266.3907)"
           style="fill:#d9ddc1;fill-opacity:1"><path
             inkscape:connector-curvature="0"
             d="M 0,0 C -0.998,-1.001 -1.608,-2.361 -1.609,-3.885 -1.608,-5.409 -0.998,-6.768 0,-7.77 1.001,-8.767 2.36,-9.378 3.885,-9.379 5.407,-9.378 6.768,-8.767 7.77,-7.77 8.766,-6.768 9.376,-5.409 9.378,-3.885 9.376,-2.361 8.766,-1.002 7.77,0 6.768,0.998 5.409,1.608 3.885,1.609 2.36,1.608 1.001,0.998 0,0"
             style="fill:#d9ddc1;fill-opacity:1;fill-rule:nonzero;stroke:none"
             id="path70" /></g><g
           id="g72"
           transform="translate(974.061,1489.2709)"
           style="fill:#d9ddc1;fill-opacity:1"><path
             inkscape:connector-curvature="0"
             d="M 0,0 C 1.15,1.154 1.854,2.723 1.855,4.479 1.854,6.234 1.15,7.804 0,8.957 -1.153,10.106 -2.721,10.811 -4.478,10.812 -6.234,10.811 -7.803,10.106 -8.956,8.957 -10.106,7.804 -10.81,6.234 -10.811,4.479 -10.81,2.723 -10.106,1.154 -8.956,0 -7.803,-1.149 -6.234,-1.853 -4.478,-1.855 -2.721,-1.853 -1.153,-1.149 0,0"
             style="fill:#d9ddc1;fill-opacity:1;fill-rule:nonzero;stroke:none"
             id="path74" /></g><g
           id="g76"
           transform="translate(908.8278,1374.7096)"
           style="fill:#d9ddc1;fill-opacity:1"><path
             inkscape:connector-curvature="0"
             d="m 0,0 c 2.82,-1.079 5.737,-2.139 8.77,-3.156 l -13.762,-16.46 z m 12.59,-4.393 c 14.157,-4.425 30.722,-7.766 50.878,-7.766 18.771,0 33.687,1.579 45.389,3.804 v -19.624 l -13.383,-4.647 -6.883,-30.494 -0.156,-0.198 c -2.759,5.357 -8.508,15.705 -11.86,15.921 -4.537,0.279 -8.637,0 -8.637,0 0,0 9.13,2.822 9.13,6.083 0,3.248 -7.293,9.051 -7.293,9.051 l 0.058,-2.639 c 0.082,-3.685 -1.823,-7.228 -5.105,-8.9 -1.069,-0.544 -2.271,-0.907 -3.578,-0.907 -1.311,0 -2.515,0.363 -3.584,0.907 -3.279,1.67 -5.182,5.205 -5.108,8.883 l 0.055,2.656 c 0,0 -7.283,-5.803 -7.283,-9.051 0,-3.261 9.119,-6.083 9.119,-6.083 0,0 -4.099,0.279 -8.625,0 -2.844,-0.183 -7.856,-7.959 -11.189,-13.716 l -6.429,28.487 -15.516,4.918 z m 61.125,-70.348 c -3.206,4.931 -6.228,10.568 -11.896,10.568 -5.535,0 -9.08,-5.372 -12.798,-10.217 -2.145,0.943 -4.21,2.116 -6.162,3.51 2.081,5.486 4.9,12.127 6.831,13.569 3.393,2.553 11.46,2.274 11.46,2.274 0,0 8.065,0.279 11.46,-2.274 1.978,-1.482 5.16,-8.461 7.474,-14.028 -2.019,-1.374 -4.157,-2.5 -6.369,-3.402 m 48.484,70.456 4.992,-19.615 -13.762,16.459 c 3.032,1.019 5.951,2.077 8.77,3.156 M -8.193,3.276 -9.663,-17.247 c -0.084,-1.15 -0.082,-2.283 -0.018,-3.401 l -0.008,0.002 0.019,-0.186 c 0.048,-0.734 0.121,-1.461 0.229,-2.178 1.183,-11.036 2.336,-17.087 6.397,-26.377 0.481,-1.102 0.918,-2.18 1.334,-3.248 l 0.431,-0.075 -0.393,-0.003 c 0,0 6.362,-15.127 -5.592,-23.702 1.202,0.515 9.275,4.123 9.275,4.123 -5.841,-17.863 -11.164,-32.119 4.808,-58.568 1.446,2.815 3.329,5.695 4.978,8.032 -0.591,4.105 -0.456,8.366 0.556,12.524 0.844,3.448 2.233,6.833 4.468,9.908 0.272,0.388 0.59,0.755 0.887,1.134 l 0.667,0.879 c 0.457,0.561 0.83,1.183 1.229,1.778 0.756,1.223 1.428,2.485 1.968,3.811 l 0.166,0.441 c -2.124,1.956 -3.464,4.75 -3.464,7.866 0,5.908 4.788,10.694 10.695,10.695 5.909,-0.001 10.695,-4.787 10.697,-10.695 -0.002,-5.842 -4.682,-10.578 -10.498,-10.686 -0.217,-0.398 -0.443,-0.792 -0.675,-1.182 -0.446,-0.802 -0.989,-1.55 -1.493,-2.312 -0.546,-0.738 -1.09,-1.476 -1.682,-2.171 -0.606,-0.688 -1.188,-1.388 -1.85,-2.014 l -1.678,-1.649 c -1.898,-1.973 -3.434,-4.547 -4.506,-7.315 -1.586,-4.058 -2.162,-8.574 -1.771,-13.086 0.828,-5.401 3.448,-12.48 9.038,-19.378 0.175,0.461 0.378,0.907 0.605,1.324 0.819,1.552 1.858,2.738 2.857,3.91 2.025,2.263 4.069,4.205 5.797,6.244 1.74,2.028 3.203,4.12 4.28,6.328 0.965,1.967 1.609,4.024 2.012,6.137 -0.504,0.345 -0.976,0.733 -1.406,1.164 -1.779,1.776 -2.887,4.255 -2.886,6.969 10e-4,5.445 4.411,9.856 9.857,9.857 5.444,-0.001 9.855,-4.412 9.857,-9.857 10e-4,-2.714 -1.107,-5.193 -2.888,-6.969 -0.949,-0.952 -2.103,-1.703 -3.383,-2.203 l -0.102,-0.378 c -1.01,-3.126 -2.473,-6.135 -4.344,-8.789 -1.861,-2.664 -4.097,-4.948 -6.397,-6.915 -2.299,-1.981 -4.676,-3.634 -6.735,-5.329 -0.99,-0.848 -1.977,-1.698 -2.631,-2.593 -0.616,-0.817 -1.017,-1.652 -1.199,-2.579 6.977,-7.061 17.411,-13.559 32.642,-17.381 0,-0.184 2.323,-0.184 2.323,0 15.305,3.841 25.764,10.384 32.742,17.484 -0.192,0.886 -0.583,1.689 -1.176,2.476 -0.655,0.895 -1.641,1.745 -2.63,2.593 -2.059,1.695 -4.438,3.348 -6.736,5.329 -2.301,1.967 -4.536,4.251 -6.397,6.915 -1.871,2.654 -3.333,5.663 -4.343,8.789 l -0.104,0.378 c -1.278,0.5 -2.433,1.251 -3.383,2.203 -1.78,1.776 -2.887,4.255 -2.887,6.969 0.002,5.445 4.412,9.856 9.857,9.857 5.445,-0.001 9.855,-4.412 9.856,-9.857 0.002,-2.714 -1.106,-5.193 -2.886,-6.969 -0.428,-0.43 -0.901,-0.819 -1.405,-1.164 0.403,-2.113 1.046,-4.17 2.012,-6.137 1.076,-2.208 2.538,-4.3 4.28,-6.328 1.728,-2.039 3.772,-3.981 5.798,-6.244 0.998,-1.172 2.037,-2.358 2.855,-3.91 0.21,-0.386 0.401,-0.795 0.568,-1.218 6.283,7.795 8.78,15.812 9.193,21.363 0.074,3.806 -0.547,7.565 -1.888,10.995 -1.073,2.768 -2.608,5.342 -4.505,7.315 l -1.678,1.649 c -0.663,0.626 -1.245,1.326 -1.85,2.014 -0.592,0.695 -1.137,1.433 -1.683,2.171 -0.505,0.762 -1.049,1.51 -1.492,2.312 -0.234,0.39 -0.459,0.784 -0.677,1.182 -5.815,0.108 -10.497,4.844 -10.497,10.686 0.002,5.908 4.789,10.694 10.696,10.695 5.908,-0.001 10.695,-4.787 10.696,-10.695 -0.001,-3.116 -1.341,-5.91 -3.465,-7.865 l 0.168,-0.442 c 0.538,-1.326 1.212,-2.588 1.966,-3.811 0.399,-0.595 0.773,-1.217 1.229,-1.778 l 0.668,-0.879 c 0.298,-0.379 0.615,-0.746 0.888,-1.134 2.235,-3.075 3.623,-6.46 4.466,-9.908 1.025,-4.206 1.151,-8.519 0.536,-12.668 1.626,-2.312 3.46,-5.131 4.876,-7.888 15.972,26.449 10.648,40.705 4.809,58.568 0,0 8.073,-3.608 9.274,-4.123 -7.31,7.591 -7.594,14.877 -6.756,19.321 0.06,0.318 0.125,0.619 0.195,0.907 0.736,2.196 1.601,4.456 2.624,6.8 4.342,9.933 3.213,30.344 3.164,31.187 l -0.882,15.138 c 12.642,4.49 17.451,8.958 17.451,8.958 0,0 -3.573,7.824 -6.693,12.474 l 5.125,-1.535 c 3.565,-2.97 6.488,-6.605 7.313,-8.751 6.838,3.556 24.619,15.866 27.083,25.714 -27.698,0 -40.388,15.509 -56.712,14.657 -0.674,-1.045 -1.373,-2.076 -2.116,-3.076 -4.376,-5.914 -9.824,-11.082 -15.969,-15.327 -3.068,-2.135 -6.334,-3.999 -9.721,-5.63 -3.386,-1.63 -6.897,-3.05 -10.508,-4.158 L 82.808,19.831 81.443,19.457 C 80.529,19.214 79.618,18.951 78.7,18.725 76.854,18.328 75.008,17.865 73.139,17.58 71.849,17.337 70.553,17.148 69.252,16.979 67.55,13.329 63.859,10.795 59.566,10.794 53.657,10.796 48.871,15.583 48.87,21.49 c 0.001,5.91 4.787,10.696 10.696,10.697 4.071,-10e-4 7.608,-2.274 9.415,-5.619 1.03,0.014 2.06,0.043 3.086,0.112 1.71,0.046 3.396,0.265 5.1,0.414 0.848,0.103 1.688,0.239 2.535,0.356 l 1.269,0.185 1.258,0.242 c 3.37,0.597 6.684,1.491 9.938,2.594 3.254,1.103 6.448,2.439 9.508,4.059 6.128,3.214 11.828,7.411 16.671,12.526 1.914,2.011 3.681,4.174 5.257,6.477 0.784,1.726 1.417,3.601 1.417,5.159 0,16.961 -44.317,16.961 -44.317,47.599 0,0 4.924,-12.583 27.903,-23.8 -5.191,11.423 -12.586,27.723 -15.849,34.917 -12.164,33.606 30.909,34.354 30.909,34.354 0,0 -22.547,19.643 -56.809,3.714 C 54.589,149.772 46.817,139.648 42.455,132.765 27.341,108.906 35.199,94.63 14.864,78.239 c 1.14,0.344 2.263,0.733 3.363,1.15 l 0.196,0.116 c 5.786,3.575 11.137,7.817 15.111,12.967 1.987,2.571 3.581,5.358 4.823,8.314 1.268,2.963 2.129,6.06 3.161,9.491 0.546,1.72 1.117,3.527 2.082,5.456 0.96,1.914 2.449,3.964 4.452,5.483 0.861,0.658 1.789,1.203 2.731,1.669 1.546,4.005 5.421,6.85 9.972,6.851 5.908,-10e-4 10.695,-4.788 10.697,-10.696 -0.002,-5.908 -4.789,-10.694 -10.697,-10.696 -3.577,0 -6.736,1.763 -8.678,4.46 -0.37,-0.354 -0.731,-0.774 -1.092,-1.291 -0.741,-1.08 -1.43,-2.501 -2.118,-4.004 -1.356,-3.046 -2.793,-6.483 -4.671,-9.678 C 42.338,94.616 40.062,91.612 37.464,89.013 32.248,83.794 26.02,80.101 19.645,77.19 18.432,76.646 17.21,76.14 15.981,75.65 12.691,73.48 9.634,71.624 7.116,70.455 -0.543,66.899 -7.109,59.786 1.099,48.845 -8.75,46.929 -45.68,38.45 -56.896,16.838 -42.024,18.943 -27.437,11.26 -8.193,3.276"
             style="fill:#d9ddc1;fill-opacity:1;fill-rule:nonzero;stroke:none"
             id="path78" /></g><g
           id="g80"
           transform="translate(948.9362,1357.9395)"
           style="fill:#d9ddc1;fill-opacity:1"><path
             inkscape:connector-curvature="0"
             d="m 0,0 -17.856,3.307 c 0,0 3.307,-8.157 8.928,-8.157 C -1.791,-4.85 0,0 0,0"
             style="fill:#d9ddc1;fill-opacity:1;fill-rule:nonzero;stroke:none"
             id="path82" /></g><g
           id="g84"
           transform="translate(995.636,1353.0897)"
           style="fill:#d9ddc1;fill-opacity:1"><path
             inkscape:connector-curvature="0"
             d="M 0,0 C 5.622,0 8.928,8.156 8.928,8.156 L -8.929,4.85 C -8.929,4.85 -7.137,0 0,0"
             style="fill:#d9ddc1;fill-opacity:1;fill-rule:nonzero;stroke:none"
             id="path86" /></g><g
           id="g88"
           transform="translate(1366.4181,1437.9103)"
           style="fill:#d9ddc1;fill-opacity:1"><g
             id="g4433"
             style="fill:#d9ddc1;fill-opacity:1"><path
               id="path90"
               style="fill:#d9ddc1;fill-opacity:1;fill-rule:nonzero;stroke:none"
               d="m 0,0 c -6.483,0 -11.739,5.257 -11.739,11.74 0,6.484 5.256,11.74 11.739,11.74 6.484,0 11.74,-5.256 11.74,-11.74 C 11.74,5.257 6.484,0 0,0 m -72.95,-55.309 c 1.136,-0.328 1.756,-0.848 1.855,-1.563 -0.108,0.704 -0.723,1.224 -1.855,1.563 m -1.075,-3.657 c -2.027,-3.006 -4.106,-5.697 -5.574,-9.058 -2.381,-5.431 -4.5,-10.842 -9.393,-14.465 0.38,-0.239 0.751,-0.491 1.115,-0.752 -1.489,1.065 -3.183,1.93 -4.496,2.711 -0.281,0.152 -0.528,0.314 -0.802,0.47 3.66,2.355 6.787,6.194 8.77,9.939 1.217,2.273 2.13,4.804 3.2,7.13 0.831,1.754 1.84,3.402 3.034,4.899 1.195,1.038 2.373,2.066 3.581,3.098 0.625,-0.067 1.14,-0.175 1.599,-0.304 0.13,-1.267 -0.41,-2.727 -1.034,-3.668 m -12.174,-31.441 c 0.241,0.52 0.425,1.039 0.49,1.538 -0.065,-0.499 -0.248,-1.017 -0.49,-1.538 m -2.301,-3.271 c 0.847,0.93 1.655,1.99 2.191,3.048 -0.536,-1.064 -1.338,-2.116 -2.191,-3.048 m -1.333,-1.353 c 0.411,0.387 0.852,0.83 1.288,1.305 -0.436,-0.472 -0.875,-0.921 -1.288,-1.305 m 0.294,1.823 c 0,-0.026 -0.002,-0.052 -0.003,-0.077 0.006,0.12 -0.023,0.239 -0.041,0.359 0.013,-0.094 0.044,-0.188 0.044,-0.282 m -7.624,9.027 c -2.213,0.754 -5.655,1.64 -5.288,4.587 l 0.055,0.216 c 3.047,1.034 6.203,-0.239 9.053,-1.932 2.662,-1.571 5.469,-3.007 7.245,-5.67 0.377,-0.566 0.474,-1.208 0.389,-1.884 -0.518,-0.589 -1.155,-0.828 -1.834,-0.828 -0.799,0 -1.656,0.331 -2.442,0.81 -2.495,1.557 -4.345,3.74 -7.178,4.701 m -3.788,-1.597 c 0.016,-0.006 0.032,-0.011 0.047,-0.017 0.024,-0.008 0.048,-0.018 0.071,-0.026 0.03,-0.012 0.06,-0.023 0.09,-0.034 0.107,-0.042 0.214,-0.082 0.322,-0.124 0.011,-0.003 0.021,-0.007 0.032,-0.012 -0.187,0.071 -0.374,0.143 -0.562,0.213 m 9.807,-9.548 c -0.081,-0.272 -0.19,-0.547 -0.298,-0.82 -0.554,-0.523 -1.136,-0.742 -1.735,-0.742 -2.099,0 -4.399,2.675 -6.348,4.281 -1.994,1.646 -4.324,2.323 -6.799,2.83 -1.033,0.216 -2.075,0.809 -2.45,1.852 -0.515,1.343 0.469,2.23 1.607,2.692 0.065,0.003 0.123,0.014 0.188,0.016 0.187,0.003 0.334,-0.066 0.436,-0.177 2.688,-0.072 5.562,-1.42 7.858,-2.428 3.001,-1.333 8.689,-3.573 7.541,-7.504 m -16.688,3.175 c 0.06,0.003 0.126,0.02 0.185,0.021 0.031,0 0.059,0 0.088,0 h 0.003 c 0.083,0 0.165,-0.001 0.247,-0.004 -0.171,0.007 -0.347,-0.006 -0.523,-0.017 m 7.355,-10.119 c -0.899,0 -1.812,0.146 -2.529,0.332 -1.663,0.417 -3.017,1.345 -4.539,2.056 -0.923,0.441 -1.694,0.648 -2.405,0.648 -1.143,0 -2.125,-0.534 -3.328,-1.476 -0.443,-0.351 -2.189,-1.633 -3.23,-1.633 -0.518,0 -0.861,0.318 -0.781,1.229 0.21,2.287 1.363,4.187 2.991,5.625 0.828,0.575 1.729,1.006 2.71,1.333 2.091,1.084 4.512,1.291 7.029,-0.227 3.028,-1.844 6.375,-2.959 7.583,-5.86 -0.321,-1.557 -1.89,-2.027 -3.501,-2.027 m -20.466,-6.56 c -0.034,0 -0.059,0.007 -0.092,0.008 0.042,-0.002 0.082,-0.006 0.125,-0.006 -0.01,0 -0.023,-0.002 -0.033,-0.002 m -3.281,-11.741 c 0.856,0.71 1.707,1.427 2.578,2.117 -0.14,0.056 -0.273,0.133 -0.411,0.194 0.157,-0.069 0.319,-0.128 0.477,-0.191 -0.885,-0.701 -1.774,-1.399 -2.644,-2.12 m -0.336,3.66 0.014,0.003 c 0.09,-0.057 0.18,-0.114 0.269,-0.169 -0.093,0.057 -0.19,0.108 -0.283,0.166 m -0.17,0.108 c -0.072,0.045 -0.143,0.09 -0.214,0.136 -0.081,0.052 -0.159,0.106 -0.24,0.158 0.053,-0.034 0.108,-0.067 0.162,-0.102 0.156,-0.099 0.304,-0.2 0.461,-0.3 -0.056,0.036 -0.113,0.072 -0.169,0.108 m -7.107,9.289 c -0.49,3.277 -0.256,6.475 0.605,9.547 0.221,-0.153 0.342,-0.418 0.165,-0.728 -0.138,-0.219 -0.247,-0.463 -0.348,-0.666 1.643,-2.343 3.713,-4.702 6.684,-4.702 0.072,0 0.146,0.001 0.219,0.004 0.006,0 0.011,0 0.017,0 0.448,0 0.695,-0.332 0.68,-0.746 -0.067,-2.689 0.392,-5.364 -0.096,-8.067 -0.051,-0.326 -0.342,-0.533 -0.658,-0.533 -0.082,0 -0.165,0.013 -0.246,0.042 -2.774,0.982 -5.414,3.178 -7.022,5.849 m 0.259,-1.673 c 0.004,0.014 0.019,0.025 0.016,0.041 0.002,-0.006 0.002,-0.012 0.002,-0.018 0,-0.01 -0.016,-0.014 -0.018,-0.023 m -0.267,-0.116 c 0.017,-0.001 0.036,10e-4 0.053,0.003 -0.013,-0.002 -0.023,-0.007 -0.036,-0.007 -0.006,0 -0.01,0.003 -0.017,0.004 m -0.037,-0.289 c -0.04,0.112 -0.078,0.223 -0.116,0.332 0.003,-10e-4 0.005,0 0.006,-0.002 -0.047,0.149 -0.07,0.307 -0.116,0.457 0.047,-0.157 0.098,-0.313 0.148,-0.468 -0.001,10e-4 -0.004,10e-4 -0.006,0.002 -0.007,0.003 -0.019,0.002 -0.024,0.006 -0.003,0.003 -0.005,0.004 -0.008,0.005 0.062,-0.177 0.135,-0.358 0.205,-0.54 0.036,-0.102 0.059,-0.21 0.097,-0.312 -0.065,0.172 -0.126,0.346 -0.186,0.52 m -1.127,5.513 c -0.136,-0.862 -0.253,-1.765 -0.306,-2.656 -0.126,-2.728 0.454,-5.467 -0.033,-8.14 -0.564,-2.96 -3.903,-6.426 -6.101,-8.359 -0.117,-0.103 -0.248,-0.148 -0.378,-0.148 -0.241,0 -0.475,0.156 -0.606,0.377 -1.679,2.761 -2.368,6.059 -2.455,9.367 0.072,0.569 0.138,1.138 0.226,1.705 0.023,0.145 0.034,0.292 0.058,0.436 0.003,0.006 0.007,0.011 0.011,0.016 2.113,3.096 5.848,5.444 9.579,7.464 0.007,-0.078 0.021,-0.155 0.029,-0.233 -0.005,0.057 -0.019,0.114 -0.024,0.171 m -10.087,-11.322 c 0.01,0.108 0.011,0.216 0.022,0.323 0.008,0.083 0.021,0.166 0.028,0.25 0.006,0.048 0.015,0.096 0.02,0.144 -0.026,-0.239 -0.047,-0.477 -0.07,-0.717 m -0.195,-6.468 c -0.018,0.466 -0.004,0.93 -0.008,1.395 0.007,-0.586 -0.008,-1.171 0.02,-1.758 -0.006,0.121 -0.008,0.242 -0.012,0.363 m 12.071,23.946 c 0.036,-0.045 0.078,-0.096 0.118,-0.144 -0.036,0.044 -0.085,0.099 -0.119,0.141 0,0.001 0,0.002 0.001,0.003 m 9.204,-10.188 c 0,0.015 -0.009,0.025 -0.009,0.041 v 0.014 c 0,-0.022 0.009,-0.036 0.009,-0.055 m 6.678,13.213 c 0.032,0.02 0.065,0.041 0.097,0.061 0.025,0.016 0.05,0.031 0.075,0.047 0.035,0.022 0.069,0.043 0.104,0.064 0.018,0.011 0.035,0.021 0.053,0.033 0.108,0.066 0.223,0.129 0.333,0.193 -0.224,-0.131 -0.449,-0.263 -0.662,-0.398 m -1.469,-1.029 c 0.028,0.307 0.067,0.618 0.116,0.931 0.012,0.034 0.025,0.066 0.036,0.1 -0.056,-0.345 -0.121,-0.693 -0.152,-1.031 m 2.499,0.432 c -0.889,-0.64 -1.686,-1.433 -2.392,-2.444 0.703,1.039 1.504,1.826 2.392,2.444 m 0.319,1.382 c -0.103,-0.055 -0.207,-0.109 -0.306,-0.165 0.047,0.027 0.092,0.055 0.141,0.082 0.054,0.029 0.112,0.054 0.165,0.083 m 6.275,9.749 c -0.167,-0.016 -0.333,-0.021 -0.501,-0.049 0.055,0.01 0.111,0.018 0.166,0.026 0.112,0.015 0.224,0.013 0.335,0.023 m 0.999,0.036 c -0.119,0.004 -0.237,0.011 -0.355,0.009 0.039,0.001 0.078,0.008 0.118,0.008 h 0.005 0.027 c 0.068,0 0.137,-0.016 0.205,-0.017 m 4.015,4.819 c -0.348,-0.137 -0.695,-0.277 -1.036,-0.475 0.342,0.202 0.689,0.339 1.036,0.475 m -487.79,-390.54 c -15.781,-10.308 -32.292,-19.523 -49.002,-28.394 -0.014,0.262 -0.029,0.523 -0.044,0.785 -0.176,3.246 -0.356,6.491 -0.541,9.735 -0.17,2.956 -0.35,5.915 -0.533,8.877 -0.146,2.367 -0.292,4.736 -0.439,7.105 -0.074,1.215 -0.147,2.431 -0.221,3.646 -0.118,1.943 -0.232,3.887 -0.343,5.831 -0.06,1.035 -0.12,2.07 -0.177,3.105 -0.128,2.302 -0.244,4.605 -0.353,6.907 -0.029,0.587 -0.061,1.174 -0.088,1.76 -0.129,2.832 -0.24,5.662 -0.33,8.493 -0.024,0.747 -0.037,1.494 -0.058,2.241 -0.058,2.095 -0.106,4.19 -0.136,6.283 -0.016,0.99 -0.021,1.981 -0.029,2.971 -0.015,1.985 -0.015,3.968 10e-4,5.952 0.007,0.834 0.011,1.669 0.023,2.504 0.043,2.789 0.107,5.577 0.223,8.362 0.23,5.233 0.461,10.273 1.25,15.453 0.881,5.847 2.872,11.355 4.107,17.086 0.179,0.832 0.298,1.649 0.391,2.459 0.027,0.227 0.046,0.451 0.065,0.675 0.057,0.645 0.09,1.284 0.099,1.917 10e-4,0.116 0.018,0.237 0.018,0.353 0,0.046 -0.008,0.088 -0.008,0.133 -0.003,0.899 -0.055,1.785 -0.139,2.662 -0.018,0.186 -0.037,0.371 -0.058,0.556 -0.099,0.873 -0.221,1.74 -0.38,2.599 -0.017,0.097 -0.039,0.192 -0.058,0.289 -0.157,0.823 -0.336,1.641 -0.53,2.457 -0.035,0.142 -0.066,0.286 -0.102,0.429 -0.211,0.858 -0.437,1.715 -0.672,2.571 -0.067,0.248 -0.135,0.497 -0.204,0.745 -0.222,0.8 -0.446,1.602 -0.669,2.406 -0.227,0.815 -0.447,1.636 -0.659,2.46 -0.047,0.177 -0.093,0.352 -0.137,0.53 -0.217,0.857 -0.416,1.721 -0.6,2.592 -0.035,0.172 -0.068,0.347 -0.103,0.52 -0.181,0.914 -0.345,1.834 -0.469,2.771 0.775,1.999 1.656,4.006 2.514,6.045 0.315,0.736 0.57,1.472 0.799,2.208 0.065,0.215 0.123,0.43 0.184,0.646 0.153,0.553 0.286,1.108 0.397,1.664 0.041,0.204 0.087,0.408 0.122,0.613 0.126,0.733 0.227,1.467 0.289,2.207 0.007,0.084 0.008,0.171 0.014,0.257 0.05,0.666 0.075,1.335 0.08,2.008 10e-4,0.092 0.011,0.182 0.011,0.274 0,0.143 -0.013,0.289 -0.016,0.432 -0.005,0.527 -0.023,1.057 -0.051,1.59 -0.013,0.222 -0.022,0.445 -0.038,0.668 -0.05,0.736 -0.113,1.477 -0.197,2.228 -0.629,5.937 -2.444,11.898 -4.245,17.569 -0.843,2.604 -2.743,5.432 -4.391,8.243 -0.046,0.23 -0.092,0.461 -0.153,0.706 -0.156,0.634 -0.323,1.249 -0.492,1.856 -0.047,0.167 -0.093,0.332 -0.141,0.497 -0.147,0.521 -0.297,1.035 -0.448,1.54 -0.018,0.063 -0.036,0.127 -0.055,0.189 -0.039,0.13 -0.077,0.256 -0.115,0.384 -0.109,0.362 -0.217,0.723 -0.323,1.079 -0.053,0.174 -0.103,0.346 -0.154,0.519 -0.137,0.463 -0.269,0.921 -0.396,1.376 -0.035,0.124 -0.071,0.248 -0.105,0.371 -0.147,0.537 -0.283,1.071 -0.41,1.605 -0.03,0.125 -0.056,0.25 -0.084,0.374 -0.1,0.44 -0.19,0.881 -0.27,1.323 -0.024,0.134 -0.05,0.267 -0.072,0.401 -0.09,0.54 -0.164,1.082 -0.217,1.63 -0.01,0.103 -0.014,0.208 -0.023,0.311 -0.038,0.464 -0.059,0.932 -0.066,1.406 -0.002,0.163 -0.006,0.327 -0.003,0.492 0.003,0.269 0.016,0.543 0.031,0.818 0.01,0.198 0.019,0.396 0.036,0.596 0.025,0.289 0.063,0.584 0.102,0.879 0.025,0.193 0.046,0.385 0.078,0.581 0.053,0.33 0.124,0.668 0.197,1.006 0.036,0.168 0.063,0.33 0.104,0.5 0.123,0.513 0.265,1.033 0.436,1.567 2.022,6.328 4.826,12.259 6.144,18.787 0.172,0.853 0.278,1.726 0.358,2.608 0.023,0.248 0.04,0.496 0.057,0.746 0.047,0.71 0.074,1.424 0.08,2.144 10e-4,0.123 0.014,0.242 0.014,0.365 0,0.095 -0.003,0.19 -0.003,0.284 -10e-4,0.117 -0.003,0.234 -0.005,0.35 -10e-4,0.095 -10e-4,0.189 -0.002,0.283 -0.021,0.296 -0.05,0.589 -0.088,0.878 0.044,-0.334 0.08,-0.669 0.101,-1.011 0.011,-0.198 0.026,-0.395 0.029,-0.596 0.002,-0.097 0.015,-0.192 0.015,-0.29 0,-0.449 -0.019,-0.901 -0.057,-1.355 0,-0.11 -0.013,-0.218 -0.016,-0.328 -0.01,-0.564 -0.036,-1.127 -0.095,-1.691 -0.047,-0.446 -0.115,-0.892 -0.189,-1.338 -0.071,-0.437 -0.123,-0.875 -0.221,-1.309 3.861,0.088 7.584,0.626 10.853,1.96 0.035,-5.44 0.274,-10.9 0.754,-16.396 1.341,-15.254 3.899,-35 13.47,-47.902 -0.635,-8.122 12.427,-3.954 17.018,-3.402 15.353,1.854 30.577,4.314 45.986,5.769 24.587,2.353 52.698,9.846 70.143,28.587 0.897,0.971 1.754,1.99 2.592,3.028 0.068,-0.506 0.147,-1.01 0.212,-1.516 0.692,-5.313 1.336,-10.637 1.923,-15.95 -2.301,-69.352 -56.067,-123.206 -111.097,-159.189 m -52.497,216.784 c -0.164,0.163 -0.33,0.323 -0.493,0.486 l -0.129,0.129 c 0.025,-0.024 0.049,-0.048 0.074,-0.072 0.181,-0.182 0.366,-0.362 0.548,-0.543 m 9.99,-4.741 c -0.069,-0.001 -0.138,-0.002 -0.207,-0.002 -0.157,0 -0.312,0.016 -0.468,0.023 0.225,-0.01 0.449,-0.025 0.675,-0.021 m 6.545,-2.022 c -0.011,0.002 -0.021,0.003 -0.032,0.004 0.055,0.049 0.106,0.105 0.161,0.155 -0.054,-0.048 -0.102,-0.107 -0.157,-0.155 0.01,-10e-4 0.019,-0.002 0.028,-0.004 m -13.651,27.177 c 0.005,0 0.012,0.001 0.017,0.001 0.006,0 0.011,-0.001 0.018,-0.001 z m -5.73,3.451 c 0.006,-0.048 0.014,-0.095 0.019,-0.145 0.005,-0.048 0.007,-0.097 0.012,-0.146 -10e-4,0.023 -0.004,0.045 -0.007,0.067 -0.008,0.075 -0.015,0.15 -0.024,0.224 m -8.395,-9.742 c -3.739,0.46 -7.723,0.751 -11.355,1.877 -1.839,0.545 -5.432,1.701 -5.348,4.238 0.014,0.206 0.061,0.383 0.123,0.551 -0.408,-0.056 -0.703,-0.173 -0.93,-0.324 0.448,0.317 1.199,0.484 2.477,0.355 4.13,-0.429 8.191,-1.241 12.359,-1.34 2.298,-0.06 4.675,0.006 7.071,0.073 2.848,0.079 5.724,0.159 8.529,0.026 0.735,0.031 1.44,0 2.167,-0.031 2.131,0.161 4.254,0 6.384,-0.406 -1.039,0.469 -2.173,0.769 -3.348,0.967 0.085,-0.014 0.174,-0.017 0.257,-0.032 0.193,-0.035 0.387,-0.073 0.577,-0.115 0.132,0.046 0.253,0.076 0.414,0.076 0.506,-0.03 1.011,-0.076 1.517,-0.13 -3.071,2.765 -7.891,3.885 -12.541,4.29 h -10e-4 c 0,-0.003 0,-0.008 0.002,-0.011 -0.016,0.108 -0.03,0.218 -0.045,0.322 -0.026,0.177 -0.05,0.343 -0.071,0.503 -0.032,0.226 -0.059,0.438 -0.071,0.612 -0.041,0.687 -0.094,1.369 -0.143,2.05 -0.012,0.17 -0.026,0.341 -0.037,0.512 -0.005,0.081 -0.01,0.162 -0.016,0.244 -0.006,0.107 -0.008,0.213 -0.013,0.319 -0.006,0.111 -0.01,0.222 -0.015,0.334 -0.007,0.182 -0.02,0.365 -0.023,0.547 -10e-4,0.084 0.002,0.169 10e-4,0.254 -10e-4,0.103 0.006,0.206 0.007,0.31 0.003,0.285 0,0.57 0.018,0.855 l 0.004,0.007 0.012,0.023 0.014,0.023 c 6.283,-1.747 12.19,-3.371 17.523,-7.57 1.254,-0.987 2.329,-2.094 3.261,-3.279 0.813,-3.362 0.812,-6.982 -0.005,-10.42 -1.114,-4.792 -4.867,-8.315 -9.194,-8.315 -1.651,0 -3.384,0.513 -5.088,1.664 -2.03,1.379 -3.501,2.988 -4.88,4.995 -2.483,3.648 -5.219,5.41 -9.593,5.946 m -7.792,-31.275 c -0.457,-0.328 -1.946,-1.005 -3.676,-1.559 -0.142,-0.011 -0.29,-0.036 -0.431,-0.043 -3.808,-0.169 -5.065,2.567 -5.785,5.693 1.379,-0.398 2.958,-0.507 4.774,-0.23 0.35,0.047 0.75,0.117 1.178,0.201 0.006,0.001 0.01,0 0.015,0.001 0.073,0.009 0.144,0.018 0.217,0.028 1.083,0.134 2.293,0.617 3.428,0.617 0.293,0 0.582,-0.033 0.863,-0.111 2.313,-0.645 0.573,-3.785 -0.583,-4.597 m -12.113,5.328 c -3.077,1.925 -3.541,6.642 -3.286,10.154 2.485,-2.068 5.57,-3.061 8.571,-4.595 1.962,-0.989 3.034,-3.325 0.667,-4.712 -1.306,-0.779 -2.634,-1.12 -3.929,-1.12 -0.687,0 -1.364,0.097 -2.023,0.273 m -3.786,12.233 c -2.236,1.833 -0.985,4.955 -0.054,7.128 1.432,-0.922 3.257,-1.533 4.483,-2.118 2.16,-1.073 4.329,-2.191 6.243,-3.662 0.906,-0.689 3.633,-2.942 1.25,-3.854 -0.799,-0.294 -1.733,-0.421 -2.725,-0.421 -2.856,0 -6.197,1.056 -8.239,2.221 -0.039,0.024 -0.077,0.047 -0.116,0.07 -0.283,0.211 -0.573,0.415 -0.842,0.636 m 14.358,10.948 c 0.416,-0.091 0.852,-0.15 1.288,-0.21 0.017,-0.014 0.034,-0.028 0.051,-0.042 -0.462,0.062 -0.9,0.156 -1.339,0.252 m -8.241,9.068 c -0.213,-0.158 -0.355,-0.352 -0.424,-0.577 0.064,0.228 0.219,0.414 0.424,0.577 m -7.049,-10.966 c -0.671,1.58 0.399,3.943 0.864,5.5 1.822,5.915 2.559,11.01 8.351,14.626 1.701,1.044 3.595,1.872 5.552,2.593 0.398,-3.543 -0.333,-7.009 -0.916,-10.539 -0.05,-0.333 -0.283,-0.575 -0.564,-0.685 0.137,-0.03 0.266,-0.06 0.399,-0.09 -0.455,0.102 -0.936,0.21 -1.435,0.311 0.02,-0.004 0.042,-0.007 0.062,-0.012 -0.031,0.036 -0.06,0.074 -0.087,0.117 -0.766,1.134 -1.181,2.466 -1.746,3.677 -0.501,-1.072 -0.984,-2.206 -1.342,-3.364 0.004,0 0.01,-0.002 0.015,-0.002 -1.821,0.057 -3.35,-0.377 -3.7,-2.012 -0.344,-1.603 2.436,-4.399 3.455,-5.21 0.536,-0.409 1.079,-0.759 1.626,-1.093 -0.159,0.098 -0.323,0.178 -0.482,0.281 1.478,-1.84 3.761,-2.796 5.614,-4.79 0.743,-0.82 4.276,-5.555 1.218,-5.914 -0.132,-0.016 -0.261,-0.023 -0.39,-0.023 -1.312,0 -2.486,0.768 -3.601,1.41 -2.796,1.731 -5.524,3.233 -8.866,3.677 -1.626,0.211 -3.008,0.737 -4.027,1.542 m 3.679,142.632 c 0,12.41 10.059,22.469 22.468,22.469 12.409,0 22.469,-10.059 22.469,-22.469 0,-12.408 -10.06,-22.468 -22.469,-22.468 -12.409,0 -22.468,10.06 -22.468,22.468 m 51.232,-132.382 c -0.076,0.013 -0.152,0.025 -0.228,0.038 0.015,-0.02 0.029,-0.039 0.043,-0.059 -0.018,0.024 -0.037,0.046 -0.056,0.069 0.081,-0.014 0.159,-0.035 0.241,-0.048 M 0,30.081 c -10.13,0 -18.341,-8.212 -18.341,-18.341 0,-4.361 1.529,-8.362 4.071,-11.51 l -88.481,-71.996 c -0.004,0.377 -0.011,0.758 -0.046,1.156 -0.312,3.598 -3.173,2.928 -4.777,0.987 0.044,0.021 -2.05,-4.603 -2.129,-4.932 -1.449,-2.445 -5.026,-4.209 -7.291,-5.679 -4.03,-2.602 -7.837,-5.224 -11.003,-8.817 -3.082,-3.52 -4.925,-8.172 -5.146,-12.871 0.011,-0.348 0.042,-0.696 0.064,-1.043 -0.452,0.652 -0.899,1.308 -1.393,1.916 -1.507,1.198 -3.096,2.261 -4.53,3.514 -0.434,-0.173 -0.864,-0.334 -1.314,-0.473 -19.285,-10.291 -35.94,-25.691 -52.923,-39.222 -11.593,-9.221 -25.061,-18.201 -35.786,-29.234 -3.875,-2.084 -7.487,-4.156 -11.9,-5.379 -5.813,-1.619 -11.801,-1.799 -17.792,-1.693 -9.943,0.202 -19.94,1.14 -29.861,1.804 -3.898,0.272 -20.171,5.853 -20.171,5.853 0,0 -5.77,3.09 -13.518,6.946 0.053,-0.973 0.11,-1.945 0.11,-2.945 0.005,-5.346 -0.816,-11.042 -2.718,-17.081 -1.899,-6.047 -4.853,-12.44 -9.072,-19.428 -1.574,-2.605 -4.411,-4.143 -7.453,-4.038 -1.371,0.047 -2.67,0.439 -3.819,1.087 -1.703,-3.704 -3.997,-7.534 -7.023,-11.289 -0.622,-0.772 -1.369,-1.399 -2.187,-1.896 -0.399,-0.876 -0.943,-1.692 -1.639,-2.4 -7.984,-8.144 -19.727,-15.361 -35.952,-19.543 -0.067,-0.024 -0.14,-0.052 -0.202,-0.073 -0.317,-0.104 -0.559,-0.166 -0.765,-0.215 -0.274,-0.065 -0.482,-0.102 -0.666,-0.132 -0.241,-0.039 -0.435,-0.063 -0.611,-0.082 -0.682,-0.069 -1.156,-0.078 -1.678,-0.08 -0.295,0 -0.588,0.005 -0.905,0.021 -0.323,0.018 -0.649,0.038 -1.126,0.102 -0.334,0.051 -0.697,0.093 -1.445,0.31 -0.131,0.044 -0.281,0.092 -0.444,0.148 -16.145,4.162 -27.855,11.328 -35.837,19.424 -0.699,0.709 -1.25,1.527 -1.653,2.408 -0.819,0.493 -1.569,1.118 -2.19,1.885 -3.078,3.796 -5.391,7.671 -7.113,11.417 -1.151,-0.651 -2.453,-1.045 -3.829,-1.092 -3.042,-0.105 -5.878,1.433 -7.453,4.038 -0.649,1.076 -1.258,2.134 -1.848,3.182 -0.389,0.69 -0.774,1.379 -1.136,2.058 -2.671,4.989 -4.673,9.686 -6.087,14.188 -1.902,6.04 -2.722,11.736 -2.718,17.082 0,0.354 0.032,0.693 0.039,1.044 0.01,0.487 0.031,0.967 0.054,1.448 -14.521,-5.6 -25.388,-15.164 -34.682,-27.847 -12.03,-16.396 -20.442,-36.18 -34.679,-50.822 -0.267,0.2 -0.52,0.414 -0.788,0.629 -1.379,1.149 -2.107,1.195 -3.526,0.337 -0.681,-0.437 -1.454,-1.878 -1.601,-2.943 -0.612,0.79 -1.324,1.472 -2.182,2.008 -1.385,0.855 -4.516,0.809 -6.893,0.765 -0.86,-0.016 -1.621,-0.034 -2.164,-0.007 -6.627,0.361 -13.017,1.617 -19.476,3.042 -12.865,2.805 -25.246,8.015 -37.797,11.968 -3.748,1.164 -8.886,4.306 -11.545,2.107 -0.929,0.192 -1.81,-0.696 -2.453,-3.593 -0.404,-1.813 -0.752,-3.626 -1.094,-5.44 -4.424,3.506 -10.119,5.94 -15.899,7.126 -0.502,0.076 -1.012,0.129 -1.523,0.165 -0.086,0.551 -0.18,1.109 -0.265,1.658 l 0.171,0.306 c 0.118,2.496 0.188,4.993 0.233,7.491 0.017,0.933 0.019,1.866 0.029,2.799 0.016,1.603 0.035,3.207 0.036,4.811 0,0.165 0.004,0.33 0.004,0.494 0,1.452 -0.007,2.904 -0.012,4.356 -0.011,2.723 -0.023,5.447 -0.023,8.168 0,0.408 0.016,0.836 0.016,1.242 0.037,0.766 0.053,1.526 0.053,2.292 -10e-4,0.459 -0.007,0.92 -0.016,1.386 0.162,9.96 0.752,19.797 1.234,29.759 0.355,7.406 0.682,14.849 1.451,22.235 14.674,4.206 25.422,17.695 25.422,33.719 0,19.386 -15.716,35.103 -35.102,35.103 -19.387,0 -35.103,-15.717 -35.103,-35.103 0,-14.083 8.314,-26.196 20.284,-31.787 0.116,-2.389 0.252,-4.783 0.431,-7.189 0.092,-1.103 0.145,-2.215 0.206,-3.302 0,-18.075 1.234,-36.096 2.422,-54.14 0.494,-7.577 0.805,-15.143 1.027,-22.717 -0.074,-0.026 -0.145,-0.052 -0.22,-0.079 -0.164,-0.061 -0.329,-0.123 -0.492,-0.185 0,-0.005 10e-4,-0.01 0.002,-0.015 -2.777,-1.056 -5.46,-2.325 -7.849,-4.034 -4.099,-2.951 -5.088,-7.724 -6.275,-12.344 -0.632,-2.466 -1.507,-4.337 -1.576,-5.81 0,0.001 -0.002,0.002 -0.002,0.002 -0.002,-0.019 0.002,-0.037 0.002,-0.055 -0.006,-0.161 -0.002,-0.315 0.015,-0.463 0.002,-0.021 0.004,-0.041 0.008,-0.061 0.102,-0.822 0.54,-1.513 1.561,-2.109 -1.05,-1.913 -1.932,-3.981 -1.478,-5.923 -0.003,0.003 -0.005,0.005 -0.008,0.008 0.003,-0.011 0.008,-0.021 0.011,-0.032 0.169,-0.703 0.503,-1.39 1.084,-2.045 0.291,-0.338 0.62,-0.621 0.95,-0.92 l -0.039,-0.282 c 0.002,-0.002 0.003,-0.003 0.004,-0.003 -0.923,-5.511 1.01,-10.144 5.49,-11.591 l -0.131,-0.215 c 0.292,-3.93 2.354,-5.618 5.086,-5.963 -0.015,-0.004 -0.029,-0.009 -0.044,-0.012 0.139,-0.018 0.287,-0.016 0.428,-0.027 0.212,-0.017 0.421,-0.039 0.64,-0.041 0.041,0 0.078,-0.007 0.119,-0.007 0.358,0 0.726,0.022 1.098,0.058 0.039,0.004 0.078,0.008 0.116,0.012 0.208,0.023 0.41,0.028 0.62,0.062 -0.454,-1.723 -1.071,-3.45 -1.987,-5.237 -1.447,-2.828 -3.347,-5.739 -3.892,-8.91 -1.478,-8.536 4.367,-15.944 6.521,-23.914 2.344,-8.764 2.873,-17.998 4.069,-27 -0.039,-0.237 -0.069,-0.491 -0.1,-0.713 -0.216,-1.268 -0.434,-2.505 -0.65,-3.73 -0.142,-0.813 -0.28,-1.618 -0.415,-2.417 -0.052,-0.307 -0.104,-0.614 -0.155,-0.919 -0.166,-1.007 -0.324,-2.008 -0.466,-3.003 -0.022,-0.159 -0.041,-0.317 -0.063,-0.476 -0.115,-0.828 -0.216,-1.654 -0.307,-2.479 -0.032,-0.295 -0.061,-0.59 -0.091,-0.884 -0.077,-0.792 -0.139,-1.585 -0.188,-2.38 -0.012,-0.216 -0.031,-0.431 -0.042,-0.646 -0.044,-0.885 -0.071,-1.774 -0.071,-2.67 0,-0.079 0.009,-0.16 0.009,-0.239 0.004,-0.773 0.049,-1.559 0.091,-2.344 0.021,-0.406 0.023,-0.804 0.055,-1.213 0.097,-1.202 0.236,-2.421 0.438,-3.669 1.487,-9.133 3.403,-17.914 4.114,-27.207 0.284,-3.732 0.461,-7.486 0.552,-11.24 -0.029,-0.79 -0.061,-1.586 -0.091,-2.391 -0.081,-1.369 -0.15,-2.735 -0.214,-4.102 -0.033,-0.701 -0.063,-1.404 -0.094,-2.107 -0.332,-6.644 -0.638,-13.295 -0.849,-19.926 -0.59,-18.105 0.145,-36.179 0.98,-54.254 0.318,-6.912 0.653,-13.824 0.99,-20.734 -10.124,-5.259 -20.258,-10.481 -30.287,-15.826 -15.657,-8.383 -31.093,-16.316 -45.414,-26.954 -7.69,-5.716 -20.145,-12.182 -19.259,-23.001 2.111,-6.897 9.411,-13.444 14.393,-16.611 4.568,-2.896 9.548,-5.131 14.294,-7.734 l 0.054,0.057 c 10.991,-5.292 22.288,-8.424 34.493,-10.878 11.709,-2.361 23.75,-4.382 35.685,-6.881 0.755,-32.134 1.913,-64.316 1.801,-96.408 -0.03,-8.703 -0.39,-17.414 -0.345,-26.094 0.016,-9.486 1.656,-18.812 1.281,-28.319 -0.177,-4.322 0.72,-11.155 5.417,-13.209 2.19,-0.966 3.96,-0.981 5.432,-0.276 0.325,0.403 0.629,0.809 0.919,1.218 v -0.006 -0.003 c 0.078,0.112 0.155,0.223 0.231,0.335 0.04,0.059 0.069,0.121 0.109,0.18 0.773,1.158 1.405,2.358 1.888,3.634 0.031,0.081 0.063,0.16 0.093,0.241 0.227,0.627 0.415,1.276 0.569,1.948 0.026,0.11 0.047,0.225 0.071,0.338 0.144,0.692 0.26,1.402 0.325,2.153 -0.068,3.846 -0.458,7.729 -0.474,11.614 -0.016,16.681 -1.218,33.391 -1.792,50.079 -0.099,2.948 -0.162,5.897 -0.21,8.845 -0.013,0.8 -0.023,1.601 -0.034,2.401 -0.03,2.484 -0.048,4.968 -0.05,7.452 -0.001,0.473 -0.005,0.945 -0.005,1.418 0.003,2.659 0.017,5.318 0.043,7.977 0.007,0.702 0.017,1.404 0.025,2.106 0.022,2.027 0.049,4.054 0.081,6.081 0.014,0.942 0.03,1.885 0.046,2.829 0.034,1.948 0.068,3.895 0.105,5.843 0.063,3.292 0.128,6.584 0.19,9.876 0.012,0.598 0.018,1.192 0.018,1.787 0,0.122 -0.009,0.243 -0.009,0.365 -0.005,1.529 -0.047,3.051 -0.114,4.569 -0.012,0.273 -0.024,0.545 -0.037,0.816 -0.076,1.525 -0.166,3.048 -0.267,4.569 -0.114,1.691 -0.232,3.381 -0.34,5.076 -0.01,0.161 -0.018,0.322 -0.028,0.483 -0.103,1.66 -0.194,3.325 -0.25,4.999 -0.122,3.754 -0.108,7.493 -0.138,11.202 0.003,0.171 0.004,0.342 0.008,0.513 12.281,-3.168 24.248,-7.228 35.39,-13.147 5.209,-5.045 10.378,-10.12 15.608,-15.181 8.803,-8.54 17.763,-17.286 27.712,-24.518 1.981,-1.444 4.035,-2.906 6.194,-4.167 l 0.354,-0.069 c 0.939,-0.464 1.817,-1.091 2.827,-1.353 0.74,-0.198 1.099,0.807 1.413,1.666 2.467,13.407 4.538,26.982 8.735,39.924 3.897,-0.969 31.843,-65.713 -28.662,-112.471 0,0 28.467,15.168 69.046,20.376 0.028,-1.486 0.557,-2.981 1.609,-4.463 4.325,-6.126 -1.577,-11.606 -8.408,-17.93 -0.634,-0.591 -1.267,-1.185 -1.897,-1.775 -5.264,-4.951 -18.411,-7.932 -28.973,-10.329 -3.806,-0.866 -7.394,-1.674 -10.169,-2.488 -2.317,-0.673 -5.431,-1.017 -9.267,-1.017 -11.174,0 -24.986,2.858 -28.858,4.051 -4.998,1.538 -12.098,7.968 -16.339,11.813 l -1.132,1.026 c -0.854,0.767 -1.7,1.163 -2.506,1.163 -0.201,0 -0.461,-0.034 -0.74,-0.126 l 0.211,3.192 -2.04,-5.154 c -1.069,-2.695 -0.853,-8.896 3.287,-17.462 5.831,-12.077 13.094,-27.127 46.989,-36.051 13.425,-3.518 24.709,-5.241 34.499,-5.241 10.875,0 18.243,2.077 25.444,4.391 2.736,0.878 5.078,1.292 7.382,1.292 2.511,0 4.695,-0.502 7.011,-1.04 2.762,-0.625 5.894,-1.347 10.14,-1.347 1.259,0 2.581,0.06 3.928,0.185 2.991,0.286 5.788,0.457 8.491,0.629 9.907,0.626 17.067,1.071 17.464,6.244 0.057,0.741 0.141,1.547 0.234,2.415 0.611,5.347 2.109,13.734 4.074,20.413 2.175,7.4 2.312,13.112 -3.712,18.68 -3.94,3.635 -3.485,4.378 -2.274,6.378 0.365,0.615 0.785,1.303 1.172,2.18 0.484,1.092 1.175,2.065 1.779,2.92 1.004,1.427 1.867,2.655 1.485,3.941 -0.261,0.873 -1.032,1.542 -2.432,2.101 -1.48,0.595 -7.69,3.192 -15.201,6.346 -0.033,1.302 0.277,2.985 0.953,5.185 0.098,0.324 0.12,0.653 0.097,0.979 27.991,-2.271 58.449,-11.037 87.856,-31.703 -5.877,-5.524 -5.733,-11.203 -3.575,-18.542 1.963,-6.681 3.462,-15.068 4.074,-20.415 0.093,-0.866 0.176,-1.672 0.234,-2.412 0.396,-5.176 7.557,-5.62 17.462,-6.247 2.705,-0.171 5.502,-0.343 8.493,-0.629 1.347,-0.122 2.668,-0.185 3.927,-0.185 4.247,0 7.378,0.723 10.14,1.347 2.317,0.538 4.501,1.04 7.012,1.04 2.303,0 4.647,-0.414 7.382,-1.29 7.2,-2.316 14.568,-4.391 25.443,-4.391 9.791,0 21.075,1.721 34.499,5.241 33.896,8.922 41.158,23.973 46.991,36.049 4.139,8.568 4.355,14.768 3.285,17.464 l -2.04,5.153 0.212,-3.192 c -0.278,0.092 -0.538,0.127 -0.741,0.127 -0.805,0 -1.651,-0.397 -2.505,-1.163 l -1.132,-1.026 c -4.241,-3.845 -11.341,-10.276 -16.34,-11.813 -3.871,-1.193 -17.683,-4.052 -28.857,-4.052 -3.837,0 -6.951,0.343 -9.267,1.018 -2.775,0.814 -6.365,1.62 -10.17,2.488 -10.562,2.397 -23.707,5.377 -28.971,10.328 -0.63,0.591 -1.265,1.184 -1.898,1.774 -0.383,0.355 -0.761,0.705 -1.137,1.054 24.651,12.46 44.414,13.4 66.215,6.134 -13.244,17.843 -31.607,74.212 -33.414,104.495 9.698,-12.675 16.815,-42.167 17.754,-41.703 0,0 13.934,8.6 15.914,10.044 9.951,7.232 18.909,15.978 27.713,24.518 5.23,5.061 10.398,10.136 15.607,15.182 26.188,13.911 56.918,17.604 85.635,23.396 12.204,2.453 23.502,5.585 34.492,10.877 l 0.055,-0.057 c 4.745,2.602 9.726,4.838 14.293,7.734 4.983,3.167 12.284,9.714 14.393,16.611 0.886,10.819 -11.568,17.285 -19.258,23.001 -14.321,10.638 -29.758,18.571 -45.413,26.954 -32.178,17.149 -62.743,37.926 -95.972,52.964 -123.741,55.995 -106.882,175.898 -106.882,175.898 73.661,19.905 88.881,44.773 107.844,51.261 19.083,6.511 37.316,15.248 55.167,24.566 12.045,6.311 23.577,13.129 34.127,21.402 0.744,0.734 1.509,1.417 2.303,2.103 0.186,0.65 0.386,1.295 0.59,1.916 l 0.044,0.08 c 2.456,17.789 -0.749,36.974 -4.453,54.161 -1.253,5.816 -2.889,11.521 -4.858,17.113 1.155,0.95 2.303,1.909 3.448,2.873 0.044,-0.015 0.087,-0.039 0.133,-0.053 l 0.036,0.06 c 7.635,-1.962 14.756,5.215 21.112,9.564 2.294,1.57 3.835,3.394 4.25,5.534 2.069,2.113 4.324,4.795 5.366,7.628 2.494,1.441 5.725,4.692 5.707,7.411 l -0.007,0.255 c 1.524,2.472 3.187,4.787 4.912,7.171 1.982,2.77 2.432,6.247 3.335,9.467 1.08,3.968 3.342,7.659 5.187,11.283 0.945,1.82 2.036,3.857 1.278,5.735 2.912,2.524 5.927,5.135 9.058,7.843 18.761,16.262 37.624,32.66 50.11,43.522 2.983,-2.101 6.613,-3.345 10.539,-3.345 10.13,0 18.341,8.212 18.341,18.341 0,10.129 -8.211,18.341 -18.341,18.341"
               inkscape:connector-curvature="0" /></g></g><circle
           style="opacity:1;fill:#ff6839;fill-opacity:1;stroke:#dc195a;stroke-width:1.5;stroke-miterlimit:4;stroke-dasharray:none;stroke-opacity:1"
           id="star_origin"
           cx="1367.0232"
           cy="-1450.9172"
           r="15.73013"
           transform="scale(1,-1)"
           star_origin="" /><path
           style="fill:none;stroke:#ff0000;stroke-width:0.75px;stroke-linecap:butt;stroke-linejoin:miter;stroke-opacity:1"
           d="m 1361.7799,1453.1644 c 0,0 -152.807,211.2332 -417.97207,139.324 C 678.64278,1520.5793 662.1636,1528.0698 564.78659,1441.1796 467.4096,1354.2893 344.56476,1306.3499 259.17262,1316.8366"
           id="star_path"
           inkscape:connector-curvature="0" /></g></g></g></svg>